<svg xmlns="http://www.w3.org/2000/svg" viewBox="0 0 24 24" width="100" height="100">
  <!-- Background grid -->
  <rect x="0" y="0" width="24" height="24" fill="none" stroke="#937bff" stroke-width="0.2" />
  <path d="M2,8.5V13.5H6V12H8V13.5H12V8.5H2M2,8.5V7H12V8.5M8,10H6V11.5H8V10M15,12V7H20V12M15,12V16H16.25V17.5H18.75V16H20V12" 
    fill="none" stroke="#937bff" stroke-width="0.8" />
  <!-- Blueprint measurement lines -->
  <line x1="3" y1="6" x2="3" y2="5" stroke="#937bff" stroke-width="0.5" />
  <line x1="6" y1="6" x2="6" y2="5" stroke="#937bff" stroke-width="0.5" />
  <line x1="9" y1="6" x2="9" y2="5" stroke="#937bff" stroke-width="0.5" />
  <line x1="3" y1="5.5" x2="9" y2="5.5" stroke="#937bff" stroke-width="0.5" />
  <!-- Dimension line with text -->
  <text x="6" y="4.5" font-family="sans-serif" font-size="1" fill="#937bff" text-anchor="middle">6.0</text>
  <circle cx="17.5" cy="14.5" r="0.5" fill="none" stroke="#937bff" stroke-width="0.5" />
</svg>