<svg xmlns="http://www.w3.org/2000/svg" viewBox="0 0 24 24" width="100" height="100">
  <!-- Hard Hat -->
  <path d="M12,2L4,12H20L12,2M12,4L16.155,10H7.845L12,4M6,14V16H7V22H17V16H18V14H6M9,16H15V20H9V16Z" 
    fill="none" stroke="#937bff" stroke-width="0.8" />
  <!-- Digital elements -->
  <line x1="10" y1="17" x2="10" y2="19" stroke="#937bff" stroke-width="0.5" />
  <line x1="12" y1="17" x2="12" y2="19" stroke="#937bff" stroke-width="0.5" />
  <line x1="14" y1="17" x2="14" y2="19" stroke="#937bff" stroke-width="0.5" />
  <circle cx="10" cy="17" r="0.4" fill="#937bff" />
  <circle cx="14" cy="17" r="0.4" fill="#937bff" />
  <circle cx="12" cy="19" r="0.4" fill="#937bff" />
  <!-- Connecting circuit lines -->
  <line x1="10" y1="17" x2="12" y2="19" stroke="#937bff" stroke-width="0.3" />
  <line x1="14" y1="17" x2="12" y2="19" stroke="#937bff" stroke-width="0.3" />
</svg>